<svg width="700" height="252" viewBox="0 0 700 252" fill="none" xmlns="http://www.w3.org/2000/svg">
<g clip-path="url(#clip0_802_335)">
<g clip-path="url(#clip1_802_335)">
<g clip-path="url(#clip2_802_335)">
<g clip-path="url(#clip3_802_335)">
<g clip-path="url(#clip4_802_335)">
<g clip-path="url(#clip5_802_335)">
<path d="M322.887 133.088C300.779 133.088 282.856 115.166 282.856 93.0571V39.6809C282.856 17.5723 300.779 -0.349976 322.887 -0.349976H376.264C398.372 -0.349976 416.294 17.5723 416.294 39.6809V93.0571C416.294 115.166 398.372 133.088 376.264 133.088H322.887Z" fill="#E83D95"/>
<g clip-path="url(#clip6_802_335)">
<g clip-path="url(#clip7_802_335)">
<path d="M339.79 106.401C336.551 106.401 333.313 105.771 330.254 104.332C322.787 101.003 317.658 94.2554 316.579 86.1585L311.991 53.0509C310.731 44.0542 314.6 35.4175 322.067 30.3794C329.534 25.3412 338.98 24.9814 346.808 29.4797L375.687 46.0335C382.704 50.082 387.112 57.2793 387.382 65.3762C387.652 73.4732 383.874 81.0304 377.216 85.6187L352.925 102.172C348.967 105.051 344.378 106.401 339.79 106.401ZM335.112 34.4278C332.143 34.4278 329.174 35.3275 326.565 37.1268C321.617 40.4556 319.098 46.0335 319.998 51.8813L324.586 85.0789C325.306 90.3869 328.634 94.7952 333.582 96.9544C338.441 99.1136 344.019 98.5738 348.427 95.6049L372.718 79.0511C377.126 76.0822 379.555 71.1341 379.375 65.8261C379.105 60.5181 376.227 55.7499 371.638 53.1408L342.849 36.4971C340.42 35.1476 337.721 34.4278 335.112 34.4278Z" fill="white"/>
</g>
</g>
</g>
</g>
</g>
<mask id="mask0_802_335" style="mask-type:luminance" maskUnits="userSpaceOnUse" x="0" y="-1" width="700" height="254">
<g clip-path="url(#clip8_802_335)">
<g clip-path="url(#clip9_802_335)">
<g clip-path="url(#clip10_802_335)">
<g clip-path="url(#clip11_802_335)">
<g clip-path="url(#clip12_802_335)">
<g clip-path="url(#clip13_802_335)">
<path d="M79.738 155.883H111.742V251.488H85.1624V198.736L67.1262 251.488H44.8861L26.7143 198.329V251.488H0.134644V155.883H32.2743L56.2774 217.992L79.738 155.883ZM162.325 252.437C154.731 252.437 147.923 250.855 141.902 247.691C135.899 244.527 131.18 240.007 127.744 234.13C124.309 228.254 122.591 221.337 122.591 213.382C122.591 205.516 124.327 198.645 127.798 192.769C131.288 186.892 136.034 182.372 142.037 179.208C148.059 176.044 154.866 174.461 162.46 174.461C170.055 174.461 176.853 176.044 182.856 179.208C188.877 182.372 193.624 186.892 197.095 192.769C200.585 198.645 202.33 205.516 202.33 213.382C202.33 221.247 200.585 228.136 197.095 234.049C193.624 239.979 188.859 244.527 182.802 247.691C176.745 250.855 169.919 252.437 162.325 252.437ZM162.325 229.384C166.031 229.384 169.123 228 171.601 225.234C174.096 222.486 175.343 218.535 175.343 213.382C175.343 208.228 174.096 204.296 171.601 201.584C169.123 198.871 166.077 197.515 162.46 197.515C158.844 197.515 155.815 198.871 153.374 201.584C150.934 204.296 149.713 208.228 149.713 213.382C149.713 218.625 150.888 222.603 153.239 225.315C155.589 228.028 158.618 229.384 162.325 229.384ZM235.148 175.411L249.658 226.4L263.897 175.411H292.24L266.04 251.488H232.978L206.805 175.411H235.148ZM336.557 252.437C328.963 252.437 322.164 250.855 316.161 247.691C310.14 244.527 305.412 240.007 301.976 234.13C298.541 228.254 296.823 221.337 296.823 213.382C296.823 205.516 298.568 198.645 302.058 192.769C305.529 186.892 310.276 182.372 316.297 179.208C322.3 176.044 329.099 174.461 336.693 174.461C344.287 174.461 351.095 176.044 357.116 179.208C363.119 182.372 367.865 186.892 371.355 192.769C374.826 198.645 376.562 205.516 376.562 213.382C376.562 221.247 374.826 228.136 371.355 234.049C367.865 239.979 363.092 244.527 357.034 247.691C350.977 250.855 344.151 252.437 336.557 252.437ZM336.557 229.384C340.264 229.384 343.365 228 345.86 225.234C348.337 222.486 349.576 218.535 349.576 213.382C349.576 208.228 348.337 204.296 345.86 201.584C343.365 198.871 340.309 197.515 336.693 197.515C333.076 197.515 330.048 198.871 327.607 201.584C325.166 204.296 323.945 208.228 323.945 213.382C323.945 218.625 325.121 222.603 327.471 225.315C329.822 228.028 332.85 229.384 336.557 229.384ZM422.805 252.437C415.211 252.437 408.413 250.855 402.41 247.691C396.388 244.527 391.66 240.007 388.225 234.13C384.789 228.254 383.072 221.337 383.072 213.382C383.072 205.516 384.816 198.645 388.306 192.769C391.778 186.892 396.524 182.372 402.545 179.208C408.548 176.044 415.347 174.461 422.941 174.461C430.535 174.461 437.343 176.044 443.364 179.208C449.367 182.372 454.113 186.892 457.603 192.769C461.075 198.645 462.81 205.516 462.81 213.382C462.81 221.247 461.075 228.136 457.603 234.049C454.113 239.979 449.34 244.527 443.283 247.691C437.225 250.855 430.4 252.437 422.805 252.437ZM422.805 229.384C426.512 229.384 429.613 228 432.108 225.234C434.585 222.486 435.824 218.535 435.824 213.382C435.824 208.228 434.585 204.296 432.108 201.584C429.613 198.871 426.557 197.515 422.941 197.515C419.325 197.515 416.296 198.871 413.855 201.584C411.414 204.296 410.194 208.228 410.194 213.382C410.194 218.625 411.369 222.603 413.719 225.315C416.07 228.028 419.099 229.384 422.805 229.384ZM579.164 155.883H611.168V251.488H584.589V198.736L566.553 251.488H544.312L526.141 198.329V251.488H499.561V155.883H531.701L555.704 217.992L579.164 155.883ZM699.017 212.568C699.017 214.647 698.881 216.727 698.61 218.806H648.299C648.57 222.965 649.727 226.057 651.77 228.082C653.795 230.125 656.39 231.147 659.554 231.147C663.984 231.147 667.148 229.158 669.047 225.18H697.39C696.214 230.423 693.936 235.097 690.555 239.202C687.155 243.324 682.879 246.561 677.726 248.912C672.573 251.262 666.877 252.437 660.639 252.437C653.135 252.437 646.472 250.855 640.65 247.691C634.81 244.527 630.244 240.007 626.953 234.13C623.645 228.254 621.99 221.337 621.99 213.382C621.99 205.426 623.617 198.528 626.872 192.688C630.127 186.865 634.674 182.372 640.514 179.208C646.337 176.044 653.045 174.461 660.639 174.461C668.143 174.461 674.788 175.998 680.574 179.072C686.36 182.146 690.88 186.549 694.135 192.281C697.389 198.031 699.017 204.793 699.017 212.568ZM648.434 205.923H671.895C671.895 202.668 670.81 200.11 668.64 198.248C666.47 196.403 663.758 195.481 660.503 195.481C657.249 195.481 654.582 196.358 652.502 198.112C650.423 199.884 649.067 202.488 648.434 205.923Z" fill="white"/>
</g>
</g>
</g>
</g>
</g>
</g>
</mask>
<g mask="url(#mask0_802_335)">
<path d="M699.044 -0.349976H0.107544V252.437H699.044V-0.349976Z" fill="url(#paint0_linear_802_335)"/>
</g>
</g>
</g>
</g>
<defs>
<linearGradient id="paint0_linear_802_335" x1="0.107544" y1="138.178" x2="699.025" y2="142.042" gradientUnits="userSpaceOnUse">
<stop stop-color="#FF6CAB"/>
<stop offset="1" stop-color="#7366FF"/>
</linearGradient>
<clipPath id="clip0_802_335">
<rect width="700" height="252" fill="white"/>
</clipPath>
<clipPath id="clip1_802_335">
<rect width="700" height="252.7" fill="white" transform="translate(-0.424194 -0.306274)"/>
</clipPath>
<clipPath id="clip2_802_335">
<rect width="698.936" height="252.787" fill="white" transform="translate(0.107544 -0.349976)"/>
</clipPath>
<clipPath id="clip3_802_335">
<rect width="698.936" height="252.787" fill="white" transform="translate(0.107544 -0.349976)"/>
</clipPath>
<clipPath id="clip4_802_335">
<rect width="133.439" height="133.439" fill="white" transform="translate(282.856 -0.349976)"/>
</clipPath>
<clipPath id="clip5_802_335">
<rect width="133.439" height="133.439" fill="white" transform="translate(282.856 -0.349976)"/>
</clipPath>
<clipPath id="clip6_802_335">
<rect width="75.6402" height="80.0631" fill="white" transform="translate(311.756 26.3378)"/>
</clipPath>
<clipPath id="clip7_802_335">
<rect width="75.6402" height="80.0631" fill="white" transform="translate(311.756 26.3378)"/>
</clipPath>
<clipPath id="clip8_802_335">
<rect width="698.936" height="252.787" fill="white" transform="translate(0.107544 -0.349976)"/>
</clipPath>
<clipPath id="clip9_802_335">
<rect width="698.936" height="252.787" fill="white" transform="translate(0.107544 -0.349976)"/>
</clipPath>
<clipPath id="clip10_802_335">
<rect width="698.936" height="96.5547" fill="white" transform="translate(0.107544 155.883)"/>
</clipPath>
<clipPath id="clip11_802_335">
<rect width="698.936" height="96.5547" fill="white" transform="translate(0.107544 155.883)"/>
</clipPath>
<clipPath id="clip12_802_335">
<rect width="698.936" height="96.5547" fill="white" transform="translate(0.107544 155.883)"/>
</clipPath>
<clipPath id="clip13_802_335">
<rect width="698.936" height="96.5547" fill="white" transform="translate(0.107544 155.883)"/>
</clipPath>
</defs>
</svg>
